<svg width="60" height="60" viewBox="0 0 60 60" fill="none" xmlns="http://www.w3.org/2000/svg">
<path d="M58.125 25.3125V34.6875C58.125 37.2729 56.0229 39.375 53.4375 39.375H52.1613C50.3687 49.9988 41.1273 58.125 30 58.125C28.9636 58.125 28.125 57.2864 28.125 56.25C28.125 55.2136 28.9636 54.375 30 54.375C40.3381 54.375 48.75 45.9631 48.75 35.625V24.375C48.75 14.0369 40.3381 5.625 30 5.625C19.6619 5.625 11.25 14.0369 11.25 24.375V37.5C11.25 38.5364 10.4114 39.375 9.375 39.375H6.5625C3.97705 39.375 1.875 37.2729 1.875 34.6875V25.3125C1.875 22.7271 3.97705 20.625 6.5625 20.625H7.83875C9.63135 10.0012 18.8727 1.875 30 1.875C41.1273 1.875 50.3687 10.0012 52.1613 20.625H53.4375C56.0229 20.625 58.125 22.7271 58.125 25.3125ZM30 9.375C21.7291 9.375 15 16.1041 15 24.375V33.75C15 42.0209 21.7291 48.75 30 48.75C38.2709 48.75 45 42.0209 45 33.75V24.375C45 16.1041 38.2709 9.375 30 9.375Z" fill="#007EA7"/>
</svg>
