<svg width="24" height="25" viewBox="0 0 24 25" fill="none" xmlns="http://www.w3.org/2000/svg">
<path d="M7.48017 2.90018C7.33571 3.03412 7.21904 3.1952 7.13684 3.37423C7.05463 3.55326 7.0085 3.74673 7.00107 3.94359C6.99364 4.14046 7.02506 4.33685 7.09354 4.52157C7.16202 4.70629 7.26621 4.87571 7.40017 5.02015L14.4539 12.5L7.40017 19.9799C7.26623 20.1244 7.16205 20.2938 7.09358 20.4785C7.02511 20.6632 6.99369 20.8596 7.00112 21.0565C7.00855 21.2533 7.05468 21.4468 7.13687 21.6258C7.21907 21.8048 7.33572 21.9659 7.48017 22.0999C7.62462 22.2338 7.79404 22.338 7.97875 22.4065C8.16346 22.4749 8.35985 22.5064 8.5567 22.4989C8.75356 22.4915 8.94702 22.4454 9.12605 22.3632C9.30507 22.281 9.46616 22.1643 9.6001 22.0199L17.5998 13.52C17.8571 13.2426 18 12.8783 18 12.5C18 12.1217 17.8571 11.7574 17.5998 11.48L9.6001 2.98018C9.46617 2.83571 9.30509 2.71904 9.12606 2.63684C8.94703 2.55463 8.75356 2.5085 8.55671 2.50107C8.35985 2.49364 8.16345 2.52506 7.97874 2.59354C7.79403 2.66202 7.62461 2.76622 7.48017 2.90018Z" fill="black"/>
</svg>
