<svg width="24" height="25" viewBox="0 0 24 25" fill="none" xmlns="http://www.w3.org/2000/svg">
<path d="M16.5198 2.90018C16.6643 3.03412 16.781 3.1952 16.8632 3.37423C16.9454 3.55326 16.9915 3.74673 16.9989 3.94359C17.0064 4.14046 16.9749 4.33685 16.9065 4.52157C16.838 4.70629 16.7338 4.87571 16.5998 5.02015L9.54606 12.5L16.5998 19.9799C16.7338 20.1244 16.838 20.2938 16.9064 20.4785C16.9749 20.6632 17.0063 20.8596 16.9989 21.0565C16.9915 21.2533 16.9453 21.4468 16.8631 21.6258C16.7809 21.8048 16.6643 21.9659 16.5198 22.0999C16.3754 22.2338 16.206 22.338 16.0213 22.4065C15.8365 22.4749 15.6402 22.5064 15.4433 22.4989C15.2464 22.4915 15.053 22.4454 14.874 22.3632C14.6949 22.281 14.5338 22.1643 14.3999 22.0199L6.40017 13.52C6.14293 13.2426 6 12.8783 6 12.5C6 12.1217 6.14293 11.7574 6.40017 11.48L14.3999 2.98018C14.5338 2.83571 14.6949 2.71904 14.8739 2.63684C15.053 2.55463 15.2464 2.5085 15.4433 2.50107C15.6402 2.49364 15.8365 2.52506 16.0213 2.59354C16.206 2.66202 16.3754 2.76622 16.5198 2.90018Z" fill="#00171F"/>
</svg>
