<svg width="58" height="48" viewBox="0 0 58 48" fill="none" xmlns="http://www.w3.org/2000/svg">
<path fill-rule="evenodd" clip-rule="evenodd" d="M0.875 23.7491H57.125V27.4856H29.8921L38.6343 40.7685H19.3657L28.1079 27.4856H0.875V23.7491ZM19.3657 44.1257H38.6343V47.2643H19.3657V44.1257ZM49.1452 2.38688C50.025 2.5963 50.8652 2.94505 51.6352 3.41919L53.2532 2.7006L55.1602 4.60759L54.4419 6.22513C54.9163 6.99528 55.265 7.83575 55.4743 8.71571L57.125 9.35099V12.0478L55.4738 12.6833C55.2645 13.5631 54.9157 14.4033 54.4416 15.1733L55.1602 16.7913L53.2532 18.6983L51.6357 17.9799C50.8655 18.4542 50.025 18.803 49.145 19.0123L48.5096 20.663H45.8129L45.1774 19.0118C44.2977 18.8025 43.4574 18.4536 42.6874 17.9796L41.0694 18.6982L39.1624 16.7912L39.8807 15.1738C39.4064 14.4036 39.0577 13.5631 38.8483 12.6832L37.1976 12.0478V9.35099L38.8486 8.71548C39.058 7.83563 39.4067 6.9954 39.8809 6.22536L39.1624 4.60747L41.0694 2.70048L42.6874 3.41907C43.4574 2.94493 44.2977 2.59618 45.1774 2.38677L45.813 0.735596H48.5098L49.1452 2.38688ZM47.1614 5.99614C44.5637 5.99614 42.4582 8.10165 42.4582 10.6995C42.4582 13.2972 44.5637 15.4027 47.1614 15.4027C49.7592 15.4027 51.8646 13.2972 51.8646 10.6995C51.8646 8.10165 49.7591 5.99614 47.1614 5.99614ZM12.8226 2.38688C13.7023 2.5963 14.5426 2.94505 15.3126 3.41919L16.9306 2.7006L18.8376 4.60759L18.1191 6.22513C18.5935 6.99528 18.9423 7.83575 19.1516 8.71571L20.8023 9.3511V12.0479L19.1511 12.6834C18.9418 13.5632 18.5929 14.4034 18.1189 15.1734L18.8375 16.7915L16.9305 18.6984L15.3131 17.98C14.5429 18.4543 13.7023 18.8031 12.8224 19.0124L12.187 20.6631H9.49027L8.85477 19.0119C7.97504 18.8026 7.1348 18.4538 6.36477 17.9797L4.74676 18.6983L2.83977 16.7913L3.55824 15.1739C3.08387 14.4038 2.73523 13.5632 2.52582 12.6833L0.875 12.0478V9.35099L2.52594 8.71548C2.73535 7.83563 3.0841 6.9954 3.55824 6.22536L2.83977 4.60747L4.74676 2.70048L6.36477 3.41907C7.1348 2.94493 7.97504 2.59618 8.85477 2.38677L9.49039 0.735596H12.1872L12.8226 2.38688ZM10.8386 5.99614C8.24082 5.99614 6.13543 8.10165 6.13543 10.6995C6.13543 13.2972 8.24094 15.4027 10.8386 15.4027C13.4363 15.4027 15.5418 13.2972 15.5418 10.6995C15.542 8.10165 13.4364 5.99614 10.8386 5.99614Z" fill="#007EA7"/>
</svg>
